<svg xmlns="http://www.w3.org/2000/svg" viewBox="0 0 512 512">
  <defs>
    <radialGradient id="felt" cx="50%" cy="30%" r="90%">
      <stop offset="0%" stop-color="#1a7a44"/>
      <stop offset="70%" stop-color="#0a4d27"/>
      <stop offset="100%" stop-color="#063118"/>
    </radialGradient>
    <linearGradient id="back" x1="0" y1="0" x2="1" y2="1">
      <stop offset="0%" stop-color="#3b6fd6"/>
      <stop offset="100%" stop-color="#1d3a80"/>
    </linearGradient>
  </defs>
  <rect width="512" height="512" fill="url(#felt)"/>
  <!-- card back, fanned behind -->
  <g transform="rotate(-14 256 280)">
    <rect x="122" y="140" width="200" height="280" rx="22" fill="#000" opacity="0.35"/>
    <rect x="118" y="128" width="200" height="280" rx="22" fill="#fff"/>
    <rect x="130" y="140" width="176" height="256" rx="14" fill="url(#back)"/>
  </g>
  <!-- ace of hearts, front -->
  <g transform="rotate(9 300 280)">
    <rect x="200" y="124" width="204" height="286" rx="22" fill="#000" opacity="0.35"/>
    <rect x="196" y="112" width="204" height="286" rx="22" fill="#fff"/>
    <text x="230" y="180" font-family="Helvetica, Arial, sans-serif" font-size="60" font-weight="700" fill="#d22b2b" text-anchor="middle">A</text>
    <path transform="translate(298 190) scale(4.6)" fill="#d22b2b"
      d="M0 29.6 C-6.5 22.5 -15.5 17.8 -15.5 8.4 C-15.5 3.8 -11.7 0 -7.1 0 C-3.7 0 -1 2.7 0 5.6 C1 2.7 3.7 0 7.1 0 C11.7 0 15.5 3.8 15.5 8.4 C15.5 17.8 6.5 22.5 0 29.6 Z"/>
  </g>
</svg>
